<svg width="314" height="225" viewBox="0 0 314 225" fill="none" xmlns="http://www.w3.org/2000/svg">
<g clip-path="url(#clip0_239_3326)">
<path d="M304.183 66.1416H132.979C130.569 66.1438 128.258 67.1021 126.554 68.8062C124.85 70.5102 123.892 72.8208 123.89 75.2307V102.976C123.892 105.386 124.85 107.697 126.554 109.401C128.258 111.105 130.569 112.063 132.979 112.065H304.183C306.593 112.063 308.903 111.105 310.607 109.401C312.311 107.697 313.27 105.386 313.272 102.976V75.2307C313.27 72.8208 312.311 70.5102 310.607 68.8062C308.903 67.1021 306.593 66.1438 304.183 66.1416Z" fill="#F2F2F2"/>
<path d="M69.2245 224.5H1.11204C0.967522 224.5 0.828916 224.443 0.726727 224.34C0.624539 224.238 0.567139 224.1 0.567139 223.955C0.567139 223.811 0.624539 223.672 0.726727 223.57C0.828916 223.468 0.967522 223.41 1.11204 223.41H69.2245C69.3691 223.41 69.5077 223.468 69.6098 223.57C69.712 223.672 69.7694 223.811 69.7694 223.955C69.7694 224.1 69.712 224.238 69.6098 224.34C69.5077 224.443 69.3691 224.5 69.2245 224.5Z" fill="#3F3D56"/>
<path d="M59.2237 53.8881C58.592 54.2868 58.0555 54.8191 57.6518 55.4477C57.2482 56.0762 56.9872 56.7855 56.8874 57.5258C56.7875 58.2661 56.8512 59.0192 57.0739 59.7322C57.2966 60.4452 57.6729 61.1007 58.1764 61.6526L53.2246 72.2267L58.9165 76.8031L65.6996 61.7722C66.5706 60.865 67.0786 59.6698 67.1272 58.4131C67.1759 57.1564 66.7619 55.9255 65.9636 54.9537C65.1654 53.9819 64.0384 53.3366 62.7962 53.1402C61.554 52.9438 60.2828 53.2099 59.2237 53.8881Z" fill="#FFB8B8"/>
<path d="M30.7682 58.1799C32.3353 57.2386 34.2046 56.9365 35.9885 57.3364C37.7723 57.7363 39.3338 58.8074 40.3491 60.3277L50.4814 75.4989L53.999 67.7442C54.2186 67.26 54.6077 66.8728 55.093 66.6554C55.5783 66.4381 56.1262 66.4056 56.6338 66.5642L61.9429 68.2226C62.2203 68.3093 62.4776 68.4505 62.6995 68.638C62.9215 68.8255 63.1038 69.0555 63.2356 69.3145C63.3674 69.5735 63.4461 69.8562 63.467 70.146C63.4879 70.4359 63.4507 70.727 63.3575 71.0022L59.7232 81.7336C59.2635 83.0911 58.4954 84.3236 57.4792 85.3343C56.463 86.345 55.2264 87.1063 53.8664 87.5587C52.5065 88.011 51.0602 88.142 49.641 87.9413C48.2219 87.7407 46.8687 87.2138 45.6874 86.4021C45.1355 86.0228 44.6262 85.5848 44.1686 85.0959L29.2369 69.1415C28.5119 68.3668 27.9692 67.4396 27.6488 66.428C27.3284 65.4164 27.2383 64.346 27.3851 63.2951C27.5319 62.2442 27.9119 61.2394 28.4972 60.3543C29.0826 59.4692 29.8585 58.7263 30.7682 58.1799Z" fill="#CCCCCC"/>
<path d="M63.5455 42.5032C63.8174 42.51 64.0756 42.6245 64.2631 42.8216C64.4506 43.0187 64.5522 43.2822 64.5454 43.5541L64.458 47.0756L64.6346 47.0917L64.5712 49.4835L64.3987 49.462L64.0853 62.0777C64.0746 62.5095 63.9071 62.9227 63.6142 63.2401C63.3212 63.5575 62.9228 63.7574 62.4933 63.8026L54.4714 64.6472C54.276 64.6677 54.0786 64.6453 53.8929 64.5815C53.7071 64.5177 53.5376 64.414 53.3962 64.2778C53.2547 64.1415 53.1448 63.976 53.0741 63.7927C53.0034 63.6095 52.9737 63.413 52.987 63.2171L54.2036 45.2532C54.2292 44.8758 54.3823 44.5185 54.6379 44.2397C54.8935 43.961 55.2364 43.7776 55.61 43.7195L63.3541 42.5164C63.4174 42.5061 63.4814 42.5017 63.5455 42.5032Z" fill="#3F3D56"/>
<path d="M57.3371 44.3735L61.4083 43.7411C61.4815 43.7297 61.549 43.6945 61.6003 43.6409C61.6515 43.5873 61.6836 43.5183 61.6917 43.4445C61.7008 43.361 61.7372 43.2829 61.7952 43.2222C61.8533 43.1614 61.9297 43.1215 62.0127 43.1086L62.8703 42.9754C62.9873 42.9572 63.1069 42.965 63.2206 42.998C63.3343 43.0311 63.4393 43.0888 63.5283 43.1669C63.6173 43.245 63.6881 43.3417 63.7357 43.4501C63.7832 43.5586 63.8064 43.6762 63.8035 43.7945L63.3627 62.0853C63.3573 62.3122 63.2684 62.5293 63.1131 62.6949C62.9579 62.8605 62.747 62.9632 62.5209 62.9833L54.5049 63.696C54.4026 63.7051 54.2996 63.692 54.2028 63.6576C54.1061 63.6233 54.0179 63.5684 53.9443 63.4968C53.8707 63.4253 53.8134 63.3387 53.7764 63.2429C53.7393 63.1472 53.7234 63.0446 53.7296 62.9421L54.8112 45.1442C54.8271 44.8819 54.9323 44.633 55.1091 44.4388C55.286 44.2446 55.524 44.1166 55.7837 44.0763L56.6876 43.9359C56.7209 44.0772 56.8062 44.2008 56.9266 44.282C57.047 44.3631 57.1936 44.3958 57.3371 44.3735Z" fill="white"/>
<path d="M38.4497 217.886L44.679 217.885L47.6416 193.857L38.4475 193.859L38.4497 217.886Z" fill="#FFB8B8"/>
<path d="M56.6934 223.669L37.1152 223.671L37.1146 216.106L49.1284 216.105C50.1218 216.105 51.1054 216.301 52.0232 216.681C52.941 217.061 53.7749 217.618 54.4773 218.32C55.1798 219.023 55.7371 219.857 56.1173 220.774C56.4975 221.692 56.6933 222.676 56.6934 223.669Z" fill="#2F2E41"/>
<path d="M19.3042 217.886L25.5335 217.885L28.4961 193.857L19.302 193.859L19.3042 217.886Z" fill="#FFB8B8"/>
<path d="M37.5479 223.669L17.9697 223.671L17.969 216.106L29.9829 216.105C31.9891 216.105 33.9131 216.902 35.3318 218.32C36.7506 219.739 37.5477 221.663 37.5479 223.669Z" fill="#2F2E41"/>
<path d="M37.5479 50.0137C44.9393 50.0137 50.9312 44.0218 50.9312 36.6304C50.9312 29.239 44.9393 23.2471 37.5479 23.2471C30.1565 23.2471 24.1646 29.239 24.1646 36.6304C24.1646 44.0218 30.1565 50.0137 37.5479 50.0137Z" fill="#FFB8B8"/>
<path d="M44.4358 72.4364C44.3265 68.9955 43.3578 65.6367 41.618 62.6661C39.8783 59.6955 37.4227 57.2075 34.4752 55.4288C31.0177 53.3914 27.2331 52.5968 24.2221 55.6077C22.4142 57.461 20.9663 59.6341 19.9523 62.0164C17.1671 68.5082 16.9849 75.8224 19.4434 82.4449L26.6096 102.243L43.196 104.04C43.5075 104.074 43.8227 104.04 44.12 103.941C44.4172 103.842 44.6897 103.68 44.9186 103.466C45.1476 103.252 45.3278 102.991 45.4469 102.701C45.5659 102.411 45.6211 102.099 45.6086 101.786L44.4358 72.4364Z" fill="#2F2E41"/>
<path d="M27.6611 99.8057C27.6611 99.8057 15.2694 104.432 18.5092 124.02C21.4164 141.598 19.1061 199.941 18.6011 211.735C18.5771 212.297 18.7715 212.846 19.1437 213.268C19.516 213.69 20.037 213.952 20.5978 213.998L27.8313 214.601C28.3979 214.648 28.9605 214.472 29.3991 214.11C29.8377 213.748 30.1176 213.23 30.1791 212.664L33.9149 178.35C33.9296 178.215 33.9939 178.091 34.0953 178.001C34.1966 177.911 34.3278 177.863 34.4633 177.864C34.5987 177.866 34.7287 177.918 34.8278 178.01C34.927 178.102 34.9882 178.228 34.9996 178.363L37.7833 211.382C37.8302 211.938 38.0888 212.455 38.5057 212.826C38.9227 213.198 39.4662 213.395 40.0242 213.377L46.0999 213.185C46.3862 213.176 46.6679 213.11 46.9289 212.992C47.19 212.874 47.4252 212.706 47.6211 212.497C47.817 212.288 47.9698 212.043 48.0707 211.774C48.1717 211.506 48.2188 211.221 48.2094 210.935L44.6304 102.094L27.6611 99.8057Z" fill="#2F2E41"/>
<path d="M40.2339 35.7486C44.7099 37.5844 50.426 35.4399 52.59 31.1132C54.7541 26.7864 53.0414 20.9265 48.8879 18.4461C44.7343 15.9657 38.7631 17.2371 35.9802 21.1943C33.7165 17.116 27.7861 16.0762 23.7143 18.3519C19.6426 20.6275 17.4248 25.3941 17.1617 30.0512C16.8987 34.7083 18.3145 39.2962 20.0417 43.6291C22.8355 50.6379 31.8295 54.4117 38.788 51.4949C35.6024 46.7503 36.2313 39.8071 40.2339 35.7486Z" fill="#2F2E41"/>
<path d="M58.2708 55.5113C58.1517 55.5115 58.0357 55.473 57.9404 55.4015L57.9345 55.3971L56.6902 54.4452C56.6325 54.401 56.5842 54.3459 56.5478 54.283C56.5115 54.2202 56.4879 54.1508 56.4784 54.0788C56.4689 54.0068 56.4736 53.9336 56.4924 53.8635C56.5112 53.7933 56.5436 53.7275 56.5878 53.6699C56.6319 53.6123 56.687 53.5639 56.7499 53.5276C56.8128 53.4913 56.8822 53.4677 56.9542 53.4581C57.0262 53.4486 57.0993 53.4534 57.1695 53.4722C57.2396 53.4909 57.3054 53.5233 57.363 53.5675L58.169 54.1856L60.0736 51.7008C60.1178 51.6432 60.1728 51.5949 60.2357 51.5585C60.2985 51.5222 60.3679 51.4986 60.4399 51.4891C60.5118 51.4796 60.585 51.4844 60.6551 51.5032C60.7252 51.5219 60.7909 51.5543 60.8486 51.5985C60.9648 51.6878 61.0413 51.8197 61.0605 51.965C61.0796 52.1103 61.0404 52.2573 60.9513 52.3737L58.7111 55.295C58.6593 55.3623 58.5926 55.4167 58.5163 55.4541C58.4401 55.4915 58.3562 55.5109 58.2713 55.5106L58.2708 55.5113Z" fill="#2D66F4"/>
<path d="M304.344 0.5H133.14C130.73 0.502183 128.419 1.46049 126.715 3.16455C125.011 4.86862 124.053 7.17919 124.051 9.5891V37.3347C124.053 39.7447 125.011 42.0552 126.715 43.7593C128.419 45.4634 130.73 46.4217 133.14 46.4238H304.344C306.754 46.4217 309.064 45.4634 310.768 43.7593C312.472 42.0552 313.431 39.7447 313.433 37.3347V9.5891C313.431 7.17919 312.472 4.86861 310.768 3.16454C309.064 1.46048 306.754 0.502183 304.344 0.5ZM312.476 37.3347C312.473 39.4906 311.615 41.5574 310.091 43.0818C308.566 44.6063 306.5 45.464 304.344 45.4671H133.14C130.984 45.464 128.917 44.6063 127.393 43.0818C125.868 41.5574 125.01 39.4906 125.007 37.3347V9.5891C125.01 7.4332 125.868 5.36648 127.393 3.84203C128.917 2.31758 130.984 1.45979 133.14 1.45674H304.344C306.5 1.45979 308.566 2.31758 310.091 3.84203C311.615 5.36648 312.473 7.4332 312.476 9.5891V37.3347Z" fill="#3F3D56"/>
<path d="M167.98 39.2819C164.851 39.2819 161.793 38.3541 159.191 36.6159C156.589 34.8776 154.562 32.4069 153.364 29.5163C152.167 26.6256 151.854 23.4448 152.464 20.3761C153.075 17.3073 154.581 14.4885 156.794 12.2761C159.006 10.0637 161.825 8.55698 164.894 7.94656C167.962 7.33615 171.143 7.64943 174.034 8.84678C176.924 10.0441 179.395 12.0718 181.133 14.6733C182.872 17.2748 183.799 20.3334 183.799 23.4622C183.795 27.6564 182.127 31.6774 179.161 34.6431C176.195 37.6089 172.174 39.2771 167.98 39.2819Z" fill="#2D66F4"/>
<path d="M280.985 36.3776H198.758C197.743 36.3776 196.77 35.9744 196.052 35.2567C195.334 34.539 194.931 33.5656 194.931 32.5506C194.931 31.5356 195.334 30.5622 196.052 29.8445C196.77 29.1268 197.743 28.7236 198.758 28.7236H280.985C282 28.7236 282.973 29.1268 283.691 29.8445C284.408 30.5622 284.812 31.5356 284.812 32.5506C284.812 33.5656 284.408 34.539 283.691 35.2567C282.973 35.9744 282 36.3776 280.985 36.3776Z" fill="#CCCCCC"/>
<path d="M225.972 20.113H198.758C197.743 20.113 196.77 19.7098 196.052 18.9921C195.334 18.2744 194.931 17.301 194.931 16.286C194.931 15.271 195.334 14.2976 196.052 13.5799C196.77 12.8622 197.743 12.459 198.758 12.459H225.972C226.987 12.459 227.96 12.8622 228.678 13.5799C229.395 14.2976 229.799 15.271 229.799 16.286C229.799 17.301 229.395 18.2744 228.678 18.9921C227.96 19.7098 226.987 20.113 225.972 20.113Z" fill="#CCCCCC"/>
<path d="M167.172 29.026C166.779 29.0267 166.397 28.8997 166.083 28.6642L166.064 28.6496L161.964 25.5131C161.773 25.3676 161.614 25.1861 161.493 24.9789C161.373 24.7716 161.295 24.5427 161.264 24.3053C161.232 24.0678 161.248 23.8265 161.31 23.5951C161.371 23.3637 161.478 23.1467 161.624 22.9566C161.77 22.7665 161.951 22.607 162.159 22.4873C162.366 22.3675 162.595 22.2898 162.833 22.2586C163.07 22.2274 163.312 22.2434 163.543 22.3056C163.774 22.3677 163.991 22.4749 164.181 22.621L166.837 24.6575L173.112 16.4701C173.258 16.2802 173.439 16.1209 173.647 16.0013C173.854 15.8816 174.082 15.8038 174.319 15.7725C174.557 15.7412 174.798 15.7569 175.029 15.8187C175.26 15.8805 175.476 15.9872 175.666 16.1328L175.667 16.1332L175.628 16.1872L175.668 16.1332C176.051 16.4275 176.301 16.8617 176.364 17.3405C176.428 17.8194 176.298 18.3037 176.005 18.6873L168.623 28.3133C168.452 28.5351 168.233 28.7145 167.981 28.8378C167.73 28.961 167.453 29.0247 167.174 29.0239L167.172 29.026Z" fill="white"/>
<path d="M230.782 75.1514H59.5781C57.1682 75.1536 54.8576 76.1119 53.1535 77.8159C51.4495 79.52 50.4912 81.8306 50.489 84.2405V111.986C50.4912 114.396 51.4495 116.707 53.1535 118.411C54.8576 120.115 57.1682 121.073 59.5781 121.075H230.782C233.192 121.073 235.503 120.115 237.207 118.411C238.911 116.707 239.869 114.396 239.871 111.986V84.2405C239.869 81.8306 238.911 79.52 237.207 77.8159C235.503 76.1119 233.192 75.1536 230.782 75.1514Z" fill="white"/>
<path d="M230.782 75.1514H59.5781C57.1682 75.1536 54.8576 76.1119 53.1535 77.8159C51.4495 79.52 50.4912 81.8306 50.489 84.2405V111.986C50.4912 114.396 51.4495 116.707 53.1535 118.411C54.8576 120.115 57.1682 121.073 59.5781 121.075H230.782C233.192 121.073 235.503 120.115 237.207 118.411C238.911 116.707 239.869 114.396 239.871 111.986V84.2405C239.869 81.8306 238.911 79.52 237.207 77.8159C235.503 76.1119 233.192 75.1536 230.782 75.1514ZM238.915 111.986C238.912 114.142 238.054 116.209 236.529 117.733C235.005 119.258 232.938 120.115 230.782 120.118H59.5781C57.4222 120.115 55.3555 119.258 53.831 117.733C52.3066 116.209 51.4488 114.142 51.4457 111.986V84.2405C51.4488 82.0846 52.3066 80.0178 53.831 78.4934C55.3555 76.9689 57.4222 76.1112 59.5781 76.1081H230.782C232.938 76.1112 235.005 76.9689 236.529 78.4934C238.054 80.0178 238.912 82.0846 238.915 84.2405V111.986Z" fill="#3F3D56"/>
<path d="M94.4184 113.933C91.2896 113.933 88.231 113.006 85.6295 111.267C83.0279 109.529 81.0002 107.058 79.8029 104.168C78.6055 101.277 78.2922 98.0962 78.9026 95.0274C79.513 91.9587 81.0197 89.1399 83.2321 86.9275C85.4445 84.715 88.2633 83.2083 91.332 82.5979C94.4007 81.9875 97.5815 82.3008 100.472 83.4981C103.363 84.6955 105.834 86.7231 107.572 89.3247C109.31 91.9262 110.238 94.9848 110.238 98.1136C110.233 102.308 108.565 106.329 105.599 109.295C102.634 112.26 98.6126 113.928 94.4184 113.933Z" fill="#2D66F4"/>
<path d="M207.423 111.029H125.196C124.181 111.029 123.208 110.626 122.49 109.908C121.773 109.19 121.369 108.217 121.369 107.202C121.369 106.187 121.773 105.214 122.49 104.496C123.208 103.778 124.181 103.375 125.196 103.375H207.423C208.438 103.375 209.411 103.778 210.129 104.496C210.847 105.214 211.25 106.187 211.25 107.202C211.25 108.217 210.847 109.19 210.129 109.908C209.411 110.626 208.438 111.029 207.423 111.029Z" fill="#CCCCCC"/>
<path d="M152.41 94.7643H125.196C124.694 94.7643 124.196 94.6653 123.732 94.473C123.268 94.2807 122.846 93.9988 122.49 93.6434C122.135 93.2881 121.853 92.8662 121.661 92.4019C121.468 91.9376 121.369 91.4399 121.369 90.9373C121.369 90.4348 121.468 89.9371 121.661 89.4728C121.853 89.0085 122.135 88.5866 122.49 88.2313C122.846 87.8759 123.268 87.594 123.732 87.4017C124.196 87.2094 124.694 87.1104 125.196 87.1104H152.41C153.425 87.1104 154.398 87.5136 155.116 88.2313C155.834 88.949 156.237 89.9224 156.237 90.9373C156.237 91.9523 155.834 92.9257 155.116 93.6434C154.398 94.3611 153.425 94.7643 152.41 94.7643Z" fill="#CCCCCC"/>
<path d="M93.6104 103.677C93.2179 103.678 92.8358 103.551 92.5218 103.316L92.5023 103.301L88.4021 100.164C88.2118 100.019 88.052 99.8375 87.9319 99.6302C87.8118 99.423 87.7337 99.1941 87.7022 98.9567C87.6706 98.7192 87.6862 98.4779 87.748 98.2465C87.8098 98.015 87.9166 97.7981 88.0623 97.608C88.2081 97.4179 88.3899 97.2584 88.5973 97.1386C88.8047 97.0189 89.0337 96.9411 89.2712 96.91C89.5087 96.8788 89.75 96.8948 89.9814 96.9569C90.2127 97.0191 90.4295 97.1263 90.6193 97.2723L93.2751 99.3089L99.5509 91.1214C99.6965 90.9316 99.878 90.7723 100.085 90.6526C100.292 90.5329 100.521 90.4552 100.758 90.4239C100.995 90.3926 101.236 90.4083 101.467 90.4701C101.698 90.5319 101.915 90.6386 102.105 90.7841L102.105 90.7845L102.066 90.8386L102.106 90.7845C102.489 91.0788 102.74 91.5131 102.803 91.9919C102.866 92.4707 102.737 92.9551 102.443 93.3386L95.0613 102.965C94.8906 103.186 94.671 103.366 94.4196 103.489C94.1683 103.612 93.892 103.676 93.612 103.675L93.6104 103.677Z" fill="white"/>
<path d="M54.0264 81.4104C53.3384 81.1195 52.595 80.9829 51.8485 81.0103C51.1021 81.0377 50.3707 81.2284 49.7059 81.5691C49.0411 81.9097 48.4591 82.392 48.0009 82.9819C47.5427 83.5718 47.2193 84.2551 47.0537 84.9835L35.5452 86.955L35.0376 94.2408L51.2507 91.2284C52.4928 91.4255 53.764 91.1602 54.8235 90.4827C55.883 89.8051 56.6572 88.7625 56.9994 87.5523C57.3415 86.3421 57.2279 85.0485 56.6799 83.9165C56.132 82.7845 55.1878 81.8928 54.0264 81.4104Z" fill="#FFB8B8"/>
<path d="M34.2576 60.498C35.9252 61.2472 37.2404 62.6095 37.9305 64.3024C38.6206 65.9952 38.6327 67.8888 37.9642 69.5903L31.2932 86.5705L39.6681 85.0312C40.191 84.935 40.7311 85.0334 41.1866 85.3077C41.6421 85.5821 41.9816 86.0134 42.1412 86.5206L43.8107 91.8263C43.8979 92.1035 43.9288 92.3953 43.9016 92.6846C43.8744 92.9739 43.7896 93.2549 43.6522 93.5109C43.5148 93.767 43.3276 93.993 43.1016 94.1757C42.8756 94.3583 42.6154 94.494 42.3362 94.5746L31.4508 97.7175C30.0738 98.1151 28.6234 98.1881 27.2134 97.9309C25.8035 97.6736 24.4724 97.093 23.3246 96.2347C22.1768 95.3764 21.2435 94.2638 20.5981 92.9841C19.9527 91.7044 19.6126 90.2926 19.6046 88.8594C19.6009 88.1897 19.6697 87.5215 19.8099 86.8666L24.3838 65.4991C24.6059 64.4614 25.0573 63.4866 25.7049 62.646C26.3525 61.8054 27.1799 61.1203 28.1265 60.6408C29.0732 60.1613 30.1151 59.8997 31.1759 59.875C32.2367 59.8503 33.2897 60.0632 34.2576 60.498Z" fill="#CCCCCC"/>
</g>
<defs>
<clipPath id="clip0_239_3326">
<rect width="312.866" height="224" fill="white" transform="translate(0.567139 0.5)"/>
</clipPath>
</defs>
</svg>
