<svg width="329" height="370" viewBox="0 0 329 370" fill="none" xmlns="http://www.w3.org/2000/svg">
<g clip-path="url(#clip0_198_3256)">
<path d="M186.512 285.091C265.206 285.091 329 221.271 329 142.546C329 63.8198 265.206 0 186.512 0C107.818 0 44.0245 63.8198 44.0245 142.546C44.0245 221.271 107.818 285.091 186.512 285.091Z" fill="#F2F2F2"/>
<path d="M279.626 63.746H18.6079C18.0482 63.734 17.6041 63.2704 17.6161 62.7104C17.6277 62.1674 18.065 61.7299 18.6079 61.7183H279.626C280.185 61.7302 280.63 62.1939 280.618 62.7538C280.606 63.2969 280.169 63.7344 279.626 63.746Z" fill="#CACACA"/>
<path d="M190.671 97.9146H118.516C113.096 97.9146 108.703 102.31 108.703 107.732V107.732C108.703 113.154 113.096 117.549 118.516 117.549H190.671C196.091 117.549 200.485 113.154 200.485 107.732C200.485 102.31 196.091 97.9146 190.671 97.9146Z" fill="white"/>
<path d="M71.903 137.184H237.284C242.704 137.184 247.098 141.579 247.098 147.001C247.098 152.423 242.704 156.818 237.284 156.818H71.903C66.4833 156.818 62.0897 152.423 62.0897 147.001C62.0897 141.579 66.4833 137.184 71.903 137.184Z" fill="white"/>
<path d="M71.903 176.452H237.284C242.704 176.452 247.098 180.847 247.098 186.269C247.098 191.691 242.704 196.087 237.284 196.087H71.903C66.4833 196.087 62.0897 191.691 62.0897 186.269C62.0897 180.847 66.4833 176.452 71.903 176.452Z" fill="white"/>
<path d="M51.4082 369.136L51.019 369.098C37.8133 367.735 25.8753 360.63 18.3767 349.67C16.3228 346.617 14.6614 343.316 13.4317 339.847L13.3135 339.516L13.6635 339.488C17.841 339.151 22.1327 338.442 24.0392 338.105L11.7455 333.938L11.6695 333.573C10.9407 330.147 12.3686 326.623 15.2758 324.671C18.1908 322.626 22.0564 322.56 25.039 324.506C26.3775 325.361 27.7775 326.208 29.1313 327.028C33.7835 329.843 38.5942 332.754 42.201 336.737C47.6703 342.898 50.0676 351.199 48.7252 359.329L51.4082 369.136Z" fill="#F2F2F2"/>
<path d="M96.0952 363.02L102.154 363.02L105.037 339.639L96.0935 339.639L96.0952 363.02Z" fill="#A0616A"/>
<path d="M95.8814 369.344L114.514 369.343V369.108C114.514 365.101 111.267 361.853 107.262 361.853L103.858 359.27L97.5076 361.853L95.8811 361.853L95.8814 369.344Z" fill="#2F2E41"/>
<path d="M47.5377 346.232L52.384 349.869L68.7156 332.898L61.5621 327.529L47.5377 346.232Z" fill="#A0616A"/>
<path d="M43.5735 351.161L58.478 362.347L58.6194 362.159C61.0228 358.953 60.3741 354.406 57.1705 352.001L55.9973 347.891L49.3681 346.145L48.067 345.169L43.5735 351.161Z" fill="#2F2E41"/>
<path d="M67.6787 253.3C67.6787 253.3 68.0131 262.428 68.435 269.748C68.5042 270.948 65.6929 272.252 65.7657 273.558C65.814 274.425 66.3424 275.267 66.3915 276.171C66.4433 277.124 65.7137 277.968 65.7657 278.954C65.8165 279.917 66.6488 281.022 66.699 282.008C67.2393 292.62 69.1979 305.324 67.2366 308.876C66.2701 310.626 53.9497 334.873 53.9497 334.873C53.9497 334.873 60.8142 345.174 62.7755 341.74C65.3659 337.205 85.3301 315.988 85.3301 311.936C85.3301 307.89 89.9489 277.561 89.9489 277.561L93.1695 295.509L94.6462 299.065L94.1822 301.153L95.1365 303.97L95.1881 306.759L96.1171 311.936C96.1171 311.936 93.3224 352.277 94.8963 353.4C96.4751 354.528 104.119 356.554 105.021 354.528C105.919 352.502 111.759 312.427 111.759 312.427C111.759 312.427 112.7 294.062 113.72 276.992C113.779 276.001 114.475 274.804 114.529 273.828C114.593 272.695 114.152 271.223 114.211 270.125C114.274 268.864 114.833 267.976 114.887 266.769C115.304 257.445 112.965 246.09 112.219 244.971C109.969 241.597 107.944 238.899 107.944 238.899C107.944 238.899 77.631 228.935 69.5309 239.059L67.6787 253.3Z" fill="#2F2E41"/>
<path d="M97.9114 159.439L85.8948 157.035L80.2871 164.649C69.8234 174.942 69.6658 184.026 71.5337 198.587V219.023L70.1818 232.723C70.1818 232.723 65.3958 242.738 70.3321 245.07C75.2683 247.402 107.692 247.203 110.788 246.272C113.884 245.341 111.2 244.198 110.387 239.861C108.86 231.712 109.882 235.643 109.987 233.048C111.494 195.833 107.984 180.555 107.628 176.539L101.516 165.45L97.9114 159.439Z" fill="#3F3D56"/>
<path d="M161.246 189.445C159.994 191.819 157.055 192.728 154.682 191.475C154.429 191.342 154.188 191.186 153.963 191.01L128.012 207.494L128.087 198.519L153.296 183.884C155.092 181.87 158.179 181.693 160.193 183.49C161.877 184.993 162.313 187.455 161.246 189.445Z" fill="#A0616A"/>
<path d="M88.4237 169.834L85.4692 169.52C82.7393 169.237 80.0609 170.407 78.4124 172.602C77.7811 173.434 77.3276 174.388 77.0802 175.403L77.0784 175.411C76.3373 178.467 77.4997 181.67 80.028 183.538L90.2323 191.065C97.3934 200.745 110.852 207.167 126.639 212.385L151.177 197.138L142.498 186.622L125.667 195.646L100.648 176.272L100.634 176.26L91.1117 170.123L88.4237 169.834Z" fill="#3F3D56"/>
<path d="M93.8511 153.537C101.59 153.537 107.864 147.261 107.864 139.518C107.864 131.776 101.59 125.5 93.8511 125.5C86.1119 125.5 79.8381 131.776 79.8381 139.518C79.8381 147.261 86.1119 153.537 93.8511 153.537Z" fill="#A0616A"/>
<path d="M94.1748 153.54C94.0618 153.544 93.9486 153.546 93.8355 153.549C93.7871 153.675 93.7349 153.8 93.6746 153.922L94.1748 153.54Z" fill="#2F2E41"/>
<path d="M98.0206 139.907C98.0425 140.045 98.0762 140.181 98.1211 140.313C98.1025 140.175 98.0688 140.038 98.0206 139.907Z" fill="#2F2E41"/>
<path d="M108.043 126.099C107.466 127.891 106.951 125.618 105.054 126.027C102.771 126.519 100.115 126.35 98.2461 124.95C95.461 122.906 91.8517 122.355 88.5842 123.477C85.3858 124.609 80.0274 125.407 79.194 128.697C78.9043 129.841 78.7893 131.082 78.0871 132.03C77.4732 132.858 76.5042 133.331 75.6939 133.969C72.9579 136.122 75.0491 142.241 76.344 145.473C77.6389 148.706 80.6094 151.061 83.8752 152.268C87.0351 153.435 90.4647 153.641 93.8355 153.549C94.4218 152.028 94.1685 150.271 93.6847 148.694C93.161 146.987 92.3856 145.339 92.1668 143.567C91.948 141.795 92.4284 139.781 93.9139 138.791C95.2793 137.881 97.5012 138.435 98.0206 139.907C97.7175 138.067 99.5805 136.287 101.502 135.974C103.564 135.637 105.626 136.382 107.683 136.753C109.739 137.124 109.009 128.462 108.043 126.099Z" fill="#2F2E41"/>
<path d="M186.415 162.708C187.721 146.918 175.984 133.058 160.2 131.751C144.417 130.444 130.562 142.185 129.256 157.975C127.949 173.766 139.686 187.626 155.47 188.933C171.254 190.24 185.108 178.498 186.415 162.708Z" fill="#2D66F4"/>
<path d="M165.368 148.388L157.835 155.924L150.302 148.388C149.083 147.168 147.106 147.168 145.886 148.388C144.667 149.608 144.667 151.586 145.886 152.806L153.419 160.342L145.886 167.878C144.668 169.099 144.67 171.077 145.89 172.295C147.109 173.513 149.083 173.513 150.302 172.295L157.835 164.759L165.368 172.295C166.589 173.514 168.566 173.512 169.784 172.291C171.001 171.072 171.001 169.097 169.784 167.878L162.251 160.342L169.784 152.806C171.003 151.586 171.003 149.608 169.784 148.388C168.565 147.168 166.587 147.168 165.368 148.388Z" fill="white"/>
<path d="M146.535 136.229C147.38 138.776 146.001 141.527 143.454 142.373C143.183 142.463 142.904 142.529 142.621 142.57L136.545 172.716L130.123 166.449L137.019 138.118C136.809 135.427 138.82 133.076 141.509 132.866C143.76 132.691 145.837 134.081 146.535 136.229Z" fill="#A0616A"/>
<path d="M81.9726 175.222L79.7013 177.138C77.6071 178.912 76.5965 181.656 77.0387 184.365C77.2021 185.398 77.5759 186.385 78.137 187.267L78.1416 187.273C79.8328 189.924 82.9476 191.302 86.0456 190.77L98.5389 188.614C110.479 190.147 124.429 184.877 139.122 177.093L145.113 148.823L131.519 147.809L126.375 166.206L95.0796 170.854L95.0612 170.856L84.042 173.481L81.9726 175.222Z" fill="#3F3D56"/>
<path d="M153.111 369.828L0.665786 370C0.296894 369.999 -0.0011913 369.699 3.57973e-06 369.33C0.00118724 368.962 0.298571 368.665 0.665786 368.664L153.111 368.491C153.48 368.492 153.778 368.793 153.777 369.162C153.775 369.529 153.478 369.826 153.111 369.828Z" fill="#CACACA"/>
<path d="M31.8504 50.903C34.4704 50.903 36.5943 48.7308 36.5943 46.0513C36.5943 43.3719 34.4704 41.1997 31.8504 41.1997C29.2304 41.1997 27.1064 43.3719 27.1064 46.0513C27.1064 48.7308 29.2304 50.903 31.8504 50.903Z" fill="#3F3D56"/>
<path d="M48.2386 50.903C50.8586 50.903 52.9825 48.7308 52.9825 46.0513C52.9825 43.3719 50.8586 41.1997 48.2386 41.1997C45.6186 41.1997 43.4946 43.3719 43.4946 46.0513C43.4946 48.7308 45.6186 50.903 48.2386 50.903Z" fill="#3F3D56"/>
<path d="M64.6268 50.903C67.2468 50.903 69.3707 48.7308 69.3707 46.0513C69.3707 43.3719 67.2468 41.1997 64.6268 41.1997C62.0068 41.1997 59.8828 43.3719 59.8828 46.0513C59.8828 48.7308 62.0068 50.903 64.6268 50.903Z" fill="#3F3D56"/>
<path d="M83.3137 49.8861C83.1679 49.8861 83.0225 49.8297 82.9127 49.7173L79.7117 46.4438C79.4983 46.2257 79.4983 45.8772 79.7117 45.659L82.9127 42.3858C83.1299 42.1644 83.4854 42.1608 83.7059 42.377C83.9275 42.5938 83.9313 42.9492 83.7147 43.1706L80.8975 46.0514L83.7147 48.9325C83.9313 49.154 83.9275 49.5094 83.7059 49.7261C83.5969 49.833 83.4553 49.8861 83.3137 49.8861Z" fill="#3F3D56"/>
<path d="M88.6925 49.8861C88.5509 49.8861 88.4093 49.8329 88.3003 49.726C88.0787 49.5093 88.0748 49.1541 88.2915 48.9325L91.1084 46.0514L88.2915 43.1705C88.0748 42.9491 88.0787 42.5937 88.3003 42.377C88.5213 42.1599 88.8769 42.1641 89.0935 42.3857L92.2942 45.659C92.5076 45.8771 92.5076 46.2256 92.2942 46.4438L89.0935 49.7173C88.9837 49.8296 88.8382 49.8861 88.6925 49.8861Z" fill="#3F3D56"/>
<path d="M256.149 41.7612H250.197C249.518 41.7612 248.969 42.3112 248.969 42.9903V48.9502C248.969 49.6293 249.518 50.1793 250.197 50.1793H256.149C256.828 50.1793 257.383 49.6293 257.383 48.9502V42.9903C257.383 42.3112 256.828 41.7612 256.149 41.7612Z" fill="#3F3D56"/>
<path d="M241.564 41.7612H235.612C234.933 41.7612 234.383 42.3112 234.383 42.9903V48.9502C234.383 49.6293 234.933 50.1793 235.612 50.1793H241.564C242.243 50.1793 242.798 49.6293 242.798 48.9502V42.9903C242.798 42.3112 242.243 41.7612 241.564 41.7612Z" fill="#3F3D56"/>
<path d="M269.893 42.042H263.941C263.262 42.042 262.713 42.592 262.713 43.271V49.231C262.713 49.9101 263.262 50.46 263.941 50.46H269.893C270.572 50.46 271.127 49.9101 271.127 49.231V43.271C271.127 42.592 270.572 42.042 269.893 42.042Z" fill="#3F3D56"/>
<path d="M180.181 44.3091H132.605C131.774 44.3091 131.107 44.9825 131.107 45.8075C131.107 46.6325 131.774 47.3059 132.605 47.3059H180.181C181.006 47.3059 181.679 46.6325 181.679 45.8075C181.679 44.9826 181.006 44.3091 180.181 44.3091Z" fill="#3F3D56"/>
</g>
<defs>
<clipPath id="clip0_198_3256">
<rect width="329" height="370" fill="white"/>
</clipPath>
</defs>
</svg>
