<svg width="198" height="225" viewBox="0 0 198 225" fill="none" xmlns="http://www.w3.org/2000/svg">
<g clip-path="url(#clip0_239_3234)">
<path d="M127.205 166.343C127.648 166.58 128.153 166.674 128.652 166.614C129.15 166.555 129.619 166.343 129.993 166.008C130.367 165.673 130.629 165.231 130.744 164.742C130.859 164.253 130.821 163.741 130.634 163.274C130.684 163.026 130.72 162.848 130.77 162.6C131.728 161.705 132.932 161.117 134.226 160.912C135.521 160.706 136.847 160.891 138.036 161.444C139.224 161.997 140.221 162.892 140.897 164.015C141.574 165.137 141.899 166.437 141.833 167.746C141.529 175.129 141.894 183.095 136.987 189.047C159.383 170.746 169.595 139.568 162.756 111.527C159.4 106.85 157.834 100.638 159.339 95.0082C161.228 96.845 164.909 96.3516 164.347 93.1717C164.045 91.915 163.733 90.6621 163.431 89.4054C176.331 84.3717 179.698 103.552 164.418 111.362C165.658 116.693 166.337 122.139 166.444 127.611C168.169 122.677 171.041 118.222 174.823 114.615C178.485 111.317 183.327 109.379 187.832 107.166C193.314 104.467 199.397 109.818 197.239 115.53C193.59 115.063 191.008 119.425 194.319 121.769C188.503 131.536 177.351 137.745 166.021 137.843C164.875 148.989 161.367 159.762 155.73 169.445C162.968 158.438 176.976 161.607 188.046 161.138C188.78 161.046 189.526 161.169 190.192 161.493C190.857 161.817 191.414 162.327 191.795 162.962C192.175 163.597 192.363 164.33 192.334 165.069C192.306 165.809 192.063 166.525 191.634 167.128C190.178 167.043 188.717 167.102 187.272 167.306C186.593 167.406 185.961 167.715 185.464 168.189C184.966 168.662 184.628 169.278 184.494 169.952C184.361 170.626 184.439 171.324 184.718 171.952C184.997 172.58 185.464 173.106 186.053 173.458C176.342 182.36 161.295 184.274 149.485 178.593C145.993 182.991 142.054 187.015 137.73 190.599L120.172 182.229C120.203 182.004 120.242 181.776 120.278 181.553C121.855 182.43 123.533 183.111 125.275 183.58C123.401 176.439 121.314 172.257 127.204 166.343H127.205Z" fill="#F2F2F2"/>
<path d="M96.1801 149.451C95.8592 149.837 95.4272 150.116 94.9428 150.248C94.4584 150.381 93.9449 150.361 93.472 150.192C92.999 150.023 92.5894 149.713 92.2987 149.303C92.008 148.894 91.8502 148.405 91.8467 147.903C91.7069 147.692 91.6065 147.54 91.4666 147.329C90.2418 146.862 88.9054 146.772 87.6288 147.069C86.3522 147.367 85.1936 148.039 84.3014 148.999C83.4092 149.959 82.8241 151.164 82.6212 152.459C82.4182 153.754 82.6066 155.08 83.1622 156.268C86.228 162.991 88.8953 170.507 95.685 174.168C68.0395 165.666 46.8217 140.644 42.5788 112.094C43.923 106.497 43.0295 100.153 39.5121 95.5068C38.4559 97.9204 34.8601 98.8521 34.1816 95.695C33.9871 94.4172 33.8038 93.139 33.6092 91.8613C19.7638 92.0653 23.8796 111.099 40.9768 112.568C41.8397 117.973 43.2653 123.273 45.2303 128.381C41.7715 124.462 37.4316 121.42 32.5677 119.505C27.9325 117.833 22.7166 117.864 17.7101 117.515C11.6154 117.083 7.99939 124.333 12.1528 128.809C15.3562 127 19.3927 130.065 17.2101 133.485C26.2808 140.338 38.9508 141.881 49.4815 137.698C54.7468 147.588 62.0596 156.242 70.9324 163.083C60.0772 155.62 48.2996 163.839 37.8703 167.58C37.1552 167.772 36.5112 168.167 36.0168 168.718C35.5225 169.269 35.1992 169.952 35.0864 170.684C34.9736 171.415 35.0762 172.164 35.3817 172.838C35.6871 173.513 36.1822 174.084 36.8065 174.481C38.123 173.853 39.4987 173.357 40.9133 173C41.5805 172.837 42.2818 172.885 42.9211 173.136C43.5604 173.387 44.1064 173.83 44.4841 174.403C44.8619 174.977 45.0531 175.653 45.0313 176.34C45.0096 177.026 44.7761 177.689 44.3627 178.238C56.7144 182.82 71.3722 178.916 80.1669 169.2C85.0597 171.956 90.2257 174.197 95.5816 175.885L108.686 161.511C108.573 161.314 108.45 161.117 108.333 160.925C107.203 162.332 105.906 163.595 104.47 164.686C103.511 157.367 103.867 152.706 96.1807 149.451L96.1801 149.451Z" fill="#F2F2F2"/>
<path d="M99.5525 88.7131C100.052 88.6626 100.524 88.4598 100.905 88.132C101.285 87.8042 101.556 87.3674 101.68 86.8807C101.804 86.394 101.775 85.881 101.598 85.4111C101.421 84.9412 101.103 84.5372 100.689 84.2538C100.592 84.02 100.522 83.8521 100.425 83.6182C100.722 82.3414 101.393 81.1824 102.353 80.2896C103.313 79.3968 104.517 78.8111 105.812 78.6073C107.107 78.4036 108.433 78.5912 109.621 79.1462C110.808 79.7011 111.803 80.598 112.478 81.722C116.342 88.02 121.087 94.4301 120.332 102.107C128.72 74.427 119.814 42.8516 98.502 23.3867C93.1086 21.3757 88.3451 17.0914 86.4557 11.5787C89.0476 12.0506 91.8288 9.58826 89.5888 7.26221C88.6376 6.38725 87.6797 5.5213 86.7286 4.64628C94.6306 -6.72454 108.121 7.32022 99.7898 22.3226C103.791 26.0571 107.391 30.1996 110.531 34.6828C109.212 29.6247 109.113 24.3258 110.241 19.2218C111.443 14.443 114.381 10.1336 116.888 5.78561C119.933 0.488848 127.967 1.53864 129.36 7.48377C126.07 9.13071 126.359 14.1911 130.415 14.2906C131.032 25.6419 125.236 37.0135 115.885 43.4127C121.148 53.3038 124.242 64.2031 124.962 75.3841C124.834 62.2116 138.229 57.0322 147.157 50.4708C147.715 49.9844 148.403 49.6709 149.136 49.5686C149.869 49.4664 150.617 49.5797 151.286 49.8948C151.956 50.2098 152.52 50.7131 152.909 51.3431C153.298 51.9731 153.495 52.7026 153.476 53.4426C152.219 54.1837 151.039 55.0477 149.954 56.0219C149.446 56.4843 149.093 57.0925 148.945 57.7631C148.796 58.4337 148.858 59.1338 149.123 59.7676C149.388 60.4013 149.842 60.9377 150.424 61.3031C151.005 61.6685 151.686 61.845 152.372 61.8086C149.274 74.6132 137.849 84.5916 124.878 86.4604C124.432 92.0584 123.405 97.5948 121.814 102.98L102.572 105.822C102.471 105.618 102.377 105.407 102.283 105.202C104.081 105.051 105.853 104.681 107.56 104.099C102.024 99.2154 97.9597 96.9072 99.552 88.7135L99.5525 88.7131Z" fill="#F2F2F2"/>
<path d="M118.905 82.5437C110.145 82.5437 105.394 81.4732 103.734 79.1881C102.27 77.172 103.251 74.5118 104.388 71.4317C105.205 69.2177 106.131 66.7085 106.131 64.2251C106.131 52.1461 112.256 46.0215 124.335 46.0215C130.344 46.0215 136.797 49.214 141.596 54.5616C145.958 59.423 148.132 65.2414 147.559 70.5246C147.088 74.8575 145.072 77.7069 141.212 79.4924L140.986 79.5968L140.922 79.3565C140.588 78.1129 140.024 76.9431 139.259 75.908C139.184 77.5328 138.774 79.1247 138.055 80.5837L138.014 80.6669L137.925 80.6924C133.556 81.9368 128.372 82.274 124.343 82.4284C122.382 82.5049 120.569 82.5433 118.905 82.5437Z" fill="#2F2E41"/>
<path d="M121.293 99.3727C120.957 98.3858 120.391 97.4931 119.641 96.7688C118.891 96.0446 117.979 95.5095 116.981 95.2082C115.983 94.9068 114.928 94.8478 113.902 95.0361C112.877 95.2243 111.911 95.6544 111.086 96.2906L82.2709 113.518L73.2543 91.5176C74.016 90.4002 74.4043 89.0703 74.3634 87.7186C74.3225 86.3668 73.8546 85.0628 73.0267 83.9935C72.1989 82.9241 71.0537 82.1444 69.7553 81.7662C68.457 81.388 67.0722 81.4307 65.7996 81.8881C64.527 82.3455 63.4319 83.1943 62.6715 84.3126C61.9111 85.4308 61.5243 86.7612 61.5667 88.1129C61.6092 89.4645 62.0786 90.768 62.9076 91.8364C63.7366 92.9048 64.8827 93.6832 66.1815 94.06C66.7372 100.404 69.8257 128.76 80.57 127.73C89.6011 126.863 112.029 111.927 118.995 106.748C120.109 105.92 120.932 104.76 121.345 103.435C121.758 102.109 121.74 100.687 121.293 99.3727Z" fill="#FFB6B6"/>
<path d="M143.007 224.5H117.928L113.722 203.706L112.358 224.5H89.0615C89.0705 208.17 89.9211 191.852 91.61 175.61L91.8988 174.626L92.3549 173.053L92.6437 172.065L97.4644 155.51L97.8453 154.196H126.875C128.545 155.765 130.086 157.467 131.482 159.285C131.955 159.888 132.449 160.54 132.955 161.243C133.307 161.741 133.671 162.264 134.035 162.813C137.269 167.628 139.687 172.944 141.191 178.547V178.551C141.446 179.51 141.672 180.49 141.869 181.493V181.497C142.044 182.389 142.199 183.293 142.321 184.218C142.413 184.891 142.492 185.573 142.551 186.264C142.9 190.089 142.777 193.943 142.187 197.738L143.007 224.5Z" fill="#2F2E41"/>
<path d="M10.0374 34.3628C11.6661 33.7323 12.6309 32.3027 12.1923 31.1697C11.7537 30.0367 10.0778 29.6293 8.44913 30.2598C6.82044 30.8903 5.85567 32.3199 6.29425 33.4529C6.73284 34.5859 8.4087 34.9933 10.0374 34.3628Z" fill="#E6E6E6"/>
<path d="M30.5441 31.7329C32.1728 31.1024 33.1376 29.6729 32.699 28.5399C32.2604 27.4068 30.5845 26.9995 28.9558 27.6299C27.3271 28.2604 26.3624 29.69 26.801 30.823C27.2396 31.956 28.9154 32.3634 30.5441 31.7329Z" fill="#3F3D56"/>
<path d="M8.25896 51.8589C9.88766 51.2284 10.8524 49.7988 10.4139 48.6658C9.97527 47.5328 8.2994 47.1254 6.6707 47.7559C5.04201 48.3864 4.07722 49.8159 4.51581 50.949C4.9544 52.082 6.63027 52.4893 8.25896 51.8589Z" fill="#FF6584"/>
<path d="M2.32653 59.5762C3.07373 59.3994 3.47336 58.3853 3.21913 57.3112C2.96491 56.2371 2.15308 55.5098 1.40589 55.6866C0.658697 55.8635 0.259072 56.8776 0.5133 57.9517C0.767528 59.0257 1.57934 59.7531 2.32653 59.5762Z" fill="#E6E6E6"/>
<path d="M2.20446 72.6417C2.95166 72.4648 3.35128 71.4507 3.09705 70.3766C2.84282 69.3025 2.03101 68.5752 1.28382 68.752C0.536626 68.9289 0.137002 69.943 0.39123 71.0171C0.645458 72.0912 1.45727 72.8185 2.20446 72.6417Z" fill="#3F3D56"/>
<path d="M20.2026 45.5792C20.9498 45.4023 21.3494 44.3882 21.0952 43.3141C20.841 42.24 20.0292 41.5127 19.282 41.6895C18.5348 41.8664 18.1352 42.8805 18.3894 43.9546C18.6436 45.0287 19.4554 45.756 20.2026 45.5792Z" fill="#E6E6E6"/>
<path d="M9.40222 42.9571C10.1494 42.7803 10.549 41.7662 10.2948 40.6921C10.0406 39.618 9.22877 38.8906 8.48157 39.0675C7.73438 39.2443 7.33476 40.2584 7.58898 41.3325C7.84321 42.4066 8.65502 43.134 9.40222 42.9571Z" fill="#FF6584"/>
<path d="M20.8498 30.9259C21.597 30.749 21.9967 29.7349 21.7424 28.6608C21.4882 27.5867 20.6764 26.8594 19.9292 27.0362C19.182 27.2131 18.7824 28.2272 19.0366 29.3013C19.2908 30.3753 20.1027 31.1027 20.8498 30.9259Z" fill="#3F3D56"/>
<path d="M26.1738 121.357C26.9613 120.432 26.5216 118.764 25.1917 117.632C23.8618 116.5 22.1453 116.332 21.3578 117.257C20.5703 118.183 21.01 119.85 22.3399 120.982C23.6698 122.114 25.3863 122.282 26.1738 121.357Z" fill="#E6E6E6"/>
<path d="M14.0964 104.576C14.8839 103.651 14.4442 101.983 13.1143 100.851C11.7844 99.7188 10.0679 99.5511 9.28038 100.476C8.49289 101.401 8.9326 103.069 10.2625 104.201C11.5924 105.333 13.3089 105.501 14.0964 104.576Z" fill="#3F3D56"/>
<path d="M42.4057 114.59C43.1932 113.665 42.7535 111.997 41.4236 110.865C40.0937 109.733 38.3772 109.566 37.5897 110.491C36.8022 111.416 37.2419 113.084 38.5718 114.216C39.9017 115.348 41.6183 115.515 42.4057 114.59Z" fill="#FF6584"/>
<path d="M50.4694 114.775C51.2929 114.04 51.5459 112.98 51.0346 112.407C50.5234 111.834 49.4413 111.965 48.6179 112.7C47.7944 113.435 47.5413 114.496 48.0526 115.068C48.5639 115.641 49.6459 115.51 50.4694 114.775Z" fill="#E6E6E6"/>
<path d="M62.0171 108.662C62.8406 107.927 63.0937 106.866 62.5824 106.294C62.0711 105.721 60.989 105.852 60.1656 106.587C59.3421 107.322 59.089 108.382 59.6003 108.955C60.1116 109.528 61.1937 109.397 62.0171 108.662Z" fill="#3F3D56"/>
<path d="M29.6497 105.72C30.4732 104.985 30.7262 103.925 30.215 103.352C29.7037 102.779 28.6216 102.911 27.7982 103.646C26.9747 104.381 26.7216 105.441 27.2329 106.014C27.7442 106.587 28.8262 106.455 29.6497 105.72Z" fill="#E6E6E6"/>
<path d="M32.4859 116.466C33.3094 115.731 33.5624 114.671 33.0511 114.098C32.5398 113.525 31.4578 113.657 30.6343 114.392C29.8109 115.127 29.5578 116.187 30.0691 116.76C30.5804 117.333 31.6624 117.201 32.4859 116.466Z" fill="#FF6584"/>
<path d="M16.4552 112.128C17.2787 111.393 17.5318 110.333 17.0205 109.76C16.5092 109.188 15.4272 109.319 14.6037 110.054C13.7802 110.789 13.5272 111.849 14.0384 112.422C14.5497 112.995 15.6318 112.863 16.4552 112.128Z" fill="#3F3D56"/>
<path d="M107.31 13.7338C108.4 13.1976 108.659 11.4925 107.889 9.9253C107.118 8.35811 105.609 7.52231 104.519 8.05848C103.429 8.59465 103.17 10.2998 103.94 11.867C104.711 13.4341 106.22 14.27 107.31 13.7338Z" fill="#E6E6E6"/>
<path d="M111.727 33.9311C112.818 33.3949 113.077 31.6898 112.306 30.1226C111.535 28.5554 110.026 27.7196 108.936 28.2557C107.846 28.7919 107.587 30.497 108.358 32.0642C109.128 33.6314 110.637 34.4672 111.727 33.9311Z" fill="#3F3D56"/>
<path d="M89.726 13.4945C90.8162 12.9584 91.0752 11.2532 90.3044 9.68605C89.5337 8.11886 88.0251 7.28304 86.9348 7.81921C85.8446 8.35538 85.5856 10.0605 86.3564 11.6277C87.1271 13.1949 88.6357 14.0307 89.726 13.4945Z" fill="#FF6584"/>
<path d="M80.4835 7.08555C81.5312 6.73819 82.1846 5.86578 81.9429 5.13695C81.7013 4.40813 80.6561 4.09888 79.6084 4.44624C78.5607 4.7936 77.9073 5.66603 78.149 6.39485C78.3906 7.12368 79.4358 7.43291 80.4835 7.08555Z" fill="#E6E6E6"/>
<path d="M67.4571 8.10801C68.5048 7.76065 69.1582 6.88823 68.9166 6.15941C68.6749 5.43058 67.6297 5.12135 66.582 5.46871C65.5344 5.81607 64.8809 6.68848 65.1226 7.41731C65.3642 8.14613 66.4094 8.45537 67.4571 8.10801Z" fill="#3F3D56"/>
<path d="M95.9924 23.6656C97.0401 23.3183 97.6935 22.4458 97.4519 21.717C97.2102 20.9882 96.165 20.679 95.1173 21.0263C94.0697 21.3737 93.4162 22.2461 93.6579 22.9749C93.8995 23.7038 94.9447 24.013 95.9924 23.6656Z" fill="#E6E6E6"/>
<path d="M97.6587 12.6773C98.7063 12.33 99.3598 11.4576 99.1181 10.7287C98.8765 9.99991 97.8313 9.69068 96.7836 10.038C95.7359 10.3854 95.0825 11.2578 95.3241 11.9866C95.5658 12.7155 96.611 13.0247 97.6587 12.6773Z" fill="#FF6584"/>
<path d="M110.647 23.0269C111.695 22.6796 112.348 21.8072 112.106 21.0783C111.865 20.3495 110.819 20.0403 109.772 20.3876C108.724 20.735 108.071 21.6074 108.312 22.3363C108.554 23.0651 109.599 23.3743 110.647 23.0269Z" fill="#3F3D56"/>
<path d="M114.669 85.9061L128.485 85.1943L134.902 95.3345C134.902 95.3345 146.976 97.3531 146.139 111.581C145.303 125.809 131.449 138.295 131.449 138.295L132.041 145.704L131.012 148.643L131.144 150.293L132.547 152.04L132.692 153.848L131.449 156.707L133.139 159.445L97.5966 156.002L96.2969 151.267L98.1929 148.725L97.1338 145.409L98.726 142.219L99.5562 132.087C99.5562 132.087 90.4736 118.442 100.9 108.164L105.085 101.05L109.767 95.3377L114.669 85.9061Z" fill="#2D66F4"/>
<path d="M121.537 83.0426C129.622 83.0426 136.177 76.4881 136.177 68.4027C136.177 60.3172 129.622 53.7627 121.537 53.7627C113.452 53.7627 106.897 60.3172 106.897 68.4027C106.897 76.4881 113.452 83.0426 121.537 83.0426Z" fill="#FFB6B6"/>
<path d="M119.577 67.5155C118.315 67.5155 117.054 67.4799 115.794 67.4088L115.569 67.3961L115.599 67.1726C115.784 65.7752 115.68 64.3545 115.292 62.9993C114.633 64.5424 113.652 65.9272 112.416 67.0614L112.346 67.1254L112.252 67.1152C108.829 66.7408 105.438 66.1223 102.104 65.2643L101.976 65.2316L101.95 65.1025C101.701 63.8796 101.572 62.6353 101.565 61.3873C101.565 57.4889 102.979 54.2077 105.545 52.1482C108.339 49.9065 112.343 49.2171 116.825 50.2058H131.156C132.731 50.2076 134.242 50.8342 135.356 51.9483C136.47 53.0623 137.096 54.5727 137.098 56.1482V65.2232L136.942 65.2641C131.274 66.7538 125.438 67.5104 119.577 67.5155Z" fill="#2F2E41"/>
<path d="M19.6818 51.2313C19.0403 51.4659 18.518 51.9454 18.2296 52.5646C17.9412 53.1838 17.9102 53.8922 18.1434 54.5342L33.6031 96.9544C33.8377 97.5959 34.3172 98.1182 34.9364 98.4066C35.5556 98.695 36.264 98.7261 36.906 98.4929L96.908 76.6255C97.5495 76.3909 98.0718 75.9114 98.3602 75.2922C98.6486 74.673 98.6796 73.9646 98.4464 73.3226L82.9866 30.9025C82.752 30.2609 82.2725 29.7386 81.6533 29.4502C81.0341 29.1618 80.3258 29.1307 79.6838 29.3639L19.6818 51.2313Z" fill="#CCCCCC"/>
<path d="M74.5765 82.425L37.8491 95.8101C37.1581 96.0611 36.3957 96.0277 35.7293 95.7172C35.0628 95.4068 34.5467 94.8447 34.2942 94.1542L20.2724 55.6795C20.0214 54.9885 20.0548 54.2261 20.3652 53.5597C20.6756 52.8932 21.2377 52.3771 21.9282 52.1246L78.5396 31.4929C79.2306 31.242 79.993 31.2754 80.6594 31.5858C81.3259 31.8962 81.842 32.4583 82.0945 33.1488L88.8697 51.7394C91.036 57.7044 90.7477 64.285 88.0681 70.0377C85.3886 75.7904 80.5365 80.2453 74.5765 82.425Z" fill="white"/>
<path d="M48.1492 54.6307L39.4215 57.8114C39.3121 57.8513 39.1959 57.8693 39.0795 57.8642C38.9631 57.8592 38.8488 57.8313 38.7432 57.7821C38.6376 57.7329 38.5428 57.6634 38.464 57.5776C38.3853 57.4917 38.3242 57.3912 38.2843 57.2817C38.2444 57.1723 38.2265 57.0561 38.2315 56.9397C38.2366 56.8233 38.2645 56.709 38.3137 56.6034C38.3629 56.4978 38.4324 56.403 38.5182 56.3242C38.6041 56.2455 38.7046 56.1844 38.814 56.1445L47.5417 52.9638C47.7628 52.8832 48.0068 52.8938 48.22 52.9931C48.4333 53.0925 48.5984 53.2724 48.6789 53.4935C48.7595 53.7145 48.7489 53.9585 48.6496 54.1718C48.5503 54.3851 48.3703 54.5501 48.1492 54.6307Z" fill="#2D66F4"/>
<path d="M68.9562 50.909L40.6639 61.22C40.5544 61.26 40.4381 61.2781 40.3216 61.2732C40.2051 61.2682 40.0908 61.2404 39.9851 61.1912C39.8793 61.1421 39.7844 61.0726 39.7055 60.9867C39.6267 60.9008 39.5656 60.8002 39.5257 60.6906C39.4857 60.5811 39.4678 60.4648 39.4729 60.3483C39.478 60.2318 39.5059 60.1175 39.5552 60.0118C39.6045 59.9062 39.6742 59.8113 39.7602 59.7325C39.8461 59.6538 39.9468 59.5928 40.0564 59.553L68.3486 49.2421C68.4581 49.2022 68.5743 49.1843 68.6907 49.1893C68.8071 49.1943 68.9214 49.2222 69.027 49.2714C69.1326 49.3206 69.2274 49.3901 69.3062 49.476C69.3849 49.5618 69.446 49.6624 69.4859 49.7718C69.5257 49.8813 69.5437 49.9975 69.5387 50.1139C69.5336 50.2303 69.5057 50.3445 69.4565 50.4501C69.4073 50.5557 69.3378 50.6506 69.252 50.7293C69.1661 50.8081 69.0656 50.8691 68.9562 50.909Z" fill="#2D66F4"/>
<path d="M70.3821 54.8217L42.0899 65.1327C41.9804 65.1726 41.8642 65.1905 41.7478 65.1855C41.6314 65.1804 41.5172 65.1525 41.4116 65.1033C41.306 65.0542 41.2111 64.9846 41.1324 64.8988C41.0536 64.8129 40.9926 64.7124 40.9527 64.603C40.9128 64.4935 40.8948 64.3773 40.8999 64.2609C40.9049 64.1445 40.9328 64.0303 40.982 63.9247C41.0312 63.8191 41.1007 63.7242 41.1866 63.6454C41.2724 63.5667 41.3729 63.5056 41.4824 63.4658L69.7746 53.1548C69.9956 53.0746 70.2394 53.0854 70.4524 53.1847C70.6655 53.2841 70.8303 53.464 70.9108 53.6849C70.9913 53.9058 70.9809 54.1496 70.8817 54.3627C70.7826 54.5759 70.6029 54.741 70.3821 54.8217Z" fill="#2D66F4"/>
<path d="M71.8082 58.7352L43.516 69.0461C43.4065 69.0862 43.2902 69.1043 43.1737 69.0993C43.0572 69.0944 42.9428 69.0666 42.8371 69.0174C42.7314 68.9682 42.6364 68.8987 42.5576 68.8128C42.4788 68.7269 42.4176 68.6263 42.3777 68.5168C42.3378 68.4073 42.3199 68.2909 42.3249 68.1745C42.33 68.058 42.358 67.9437 42.4073 67.838C42.4566 67.7324 42.5262 67.6375 42.6122 67.5587C42.6982 67.48 42.7989 67.419 42.9084 67.3792L71.2007 57.0683C71.3101 57.0284 71.4264 57.0104 71.5428 57.0155C71.6592 57.0205 71.7734 57.0484 71.879 57.0976C71.9846 57.1468 72.0795 57.2163 72.1582 57.3022C72.237 57.388 72.298 57.4885 72.3379 57.598C72.3778 57.7074 72.3957 57.8237 72.3907 57.9401C72.3857 58.0564 72.3578 58.1707 72.3086 58.2763C72.2594 58.3819 72.1899 58.4768 72.104 58.5555C72.0182 58.6342 71.9177 58.6953 71.8082 58.7352Z" fill="#2D66F4"/>
<path d="M73.2342 62.6483L44.9419 72.9592C44.7209 73.0398 44.4769 73.0292 44.2636 72.9299C44.0503 72.8305 43.8853 72.6506 43.8047 72.4295C43.7242 72.2085 43.7347 71.9645 43.8341 71.7512C43.9334 71.5379 44.1134 71.3729 44.3344 71.2923L72.6267 60.9814C72.7361 60.9415 72.8524 60.9235 72.9688 60.9286C73.0852 60.9336 73.1994 60.9615 73.305 61.0107C73.4106 61.0599 73.5055 61.1294 73.5842 61.2152C73.663 61.3011 73.724 61.4016 73.7639 61.5111C73.8038 61.6205 73.8217 61.7368 73.8167 61.8531C73.8117 61.9695 73.7837 62.0838 73.7346 62.1894C73.6854 62.295 73.6159 62.3899 73.53 62.4686C73.4442 62.5473 73.3436 62.6084 73.2342 62.6483Z" fill="#2D66F4"/>
<path d="M163.006 73.5145L147.515 110.583C146.854 112.151 145.603 113.397 144.032 114.051C142.461 114.706 140.695 114.716 139.116 114.08C138.3 113.751 137.558 113.259 136.938 112.634C136.318 112.009 135.831 111.264 135.508 110.445C135.185 109.626 135.032 108.75 135.058 107.87C135.084 106.99 135.29 106.124 135.662 105.326L152.933 67.3144L162.454 43.7747C161.631 42.9542 161.081 41.9003 160.878 40.7561C160.675 39.612 160.829 38.4332 161.32 37.3798C161.81 36.3264 162.613 35.4495 163.619 34.8682C164.625 34.287 165.786 34.0296 166.944 34.131C168.101 34.2323 169.199 34.6876 170.089 35.4349C170.979 36.1822 171.617 37.1853 171.917 38.3079C172.217 39.4305 172.164 40.6182 171.765 41.7096C171.366 42.8011 170.641 43.7433 169.689 44.4084L163.006 73.5145Z" fill="#FFB6B6"/>
</g>
<defs>
<clipPath id="clip0_239_3234">
<rect width="197.37" height="224" fill="white" transform="translate(0.314697 0.5)"/>
</clipPath>
</defs>
</svg>
